<svg width="44" height="44" viewBox="0 0 44 44" fill="none" xmlns="http://www.w3.org/2000/svg">
<path d="M29.8478 16.9022C29.9757 17.0299 30.0771 17.1815 30.1463 17.3485C30.2155 17.5154 30.2511 17.6943 30.2511 17.875C30.2511 18.0557 30.2155 18.2346 30.1463 18.4015C30.0771 18.5685 29.9757 18.7201 29.8478 18.8478L20.2228 28.4728C20.0951 28.6007 19.9435 28.7021 19.7766 28.7713C19.6096 28.8405 19.4307 28.8761 19.25 28.8761C19.0693 28.8761 18.8904 28.8405 18.7235 28.7713C18.5565 28.7021 18.4049 28.6007 18.2772 28.4728L14.1522 24.3478C13.8942 24.0898 13.7492 23.7399 13.7492 23.375C13.7492 23.0101 13.8942 22.6602 14.1522 22.4022C14.4102 22.1442 14.7601 21.9992 15.125 21.9992C15.4899 21.9992 15.8398 22.1442 16.0978 22.4022L19.25 25.5561L27.9022 16.9022C28.0299 16.7743 28.1815 16.6729 28.3485 16.6037C28.5154 16.5345 28.6943 16.4989 28.875 16.4989C29.0557 16.4989 29.2346 16.5345 29.4016 16.6037C29.5685 16.6729 29.7201 16.7743 29.8478 16.9022ZM39.875 22C39.875 25.5353 38.8267 28.9913 36.8625 31.9308C34.8984 34.8703 32.1067 37.1614 28.8405 38.5143C25.5742 39.8673 21.9802 40.2212 18.5128 39.5315C15.0454 38.8418 11.8603 37.1394 9.36047 34.6395C6.86061 32.1397 5.15818 28.9547 4.46847 25.4872C3.77876 22.0198 4.13274 18.4258 5.48566 15.1595C6.83858 11.8933 9.12966 9.10161 12.0692 7.13748C15.0087 5.17335 18.4647 4.125 22 4.125C26.7392 4.13 31.2829 6.01487 34.634 9.36599C37.9851 12.7171 39.87 17.2608 39.875 22ZM37.125 22C37.125 19.0086 36.2379 16.0843 34.576 13.597C32.914 11.1097 30.5518 9.1711 27.7881 8.02632C25.0244 6.88155 21.9832 6.58202 19.0493 7.16562C16.1153 7.74922 13.4203 9.18974 11.305 11.305C9.18975 13.4203 7.74923 16.1153 7.16563 19.0493C6.58203 21.9832 6.88155 25.0244 8.02633 27.7881C9.17111 30.5518 11.1097 32.914 13.597 34.576C16.0843 36.2379 19.0086 37.125 22 37.125C26.01 37.1204 29.8545 35.5255 32.69 32.69C35.5255 29.8545 37.1205 26.01 37.125 22Z" fill="#40BB71"/>
</svg>
