<svg width="16" height="12" viewBox="0 0 16 12" fill="none" xmlns="http://www.w3.org/2000/svg">
	<path fillRule="evenodd" clipRule="evenodd"
		d="M14.0013 1.04957C14.6622 1.23093 15.1827 1.7653 15.3593 2.4439C15.6803 3.67379 15.6803 6.23997 15.6803 6.23997C15.6803 6.23997 15.6803 8.80606 15.3593 10.036C15.1827 10.7146 14.6622 11.249 14.0013 11.4305C12.8035 11.76 8.00031 11.76 8.00031 11.76C8.00031 11.76 3.19708 11.76 1.99927 11.4305C1.33835 11.249 0.817854 10.7146 0.641214 10.036C0.320312 8.80606 0.320312 6.23997 0.320312 6.23997C0.320312 6.23997 0.320312 3.67379 0.641214 2.4439C0.817854 1.7653 1.33835 1.23093 1.99927 1.04957C3.19708 0.719971 8.00031 0.719971 8.00031 0.719971C8.00031 0.719971 12.8035 0.719971 14.0013 1.04957ZM6.56028 4.0802V8.88021L10.4003 6.4803L6.56028 4.0802Z"
		fill="white" fill-opacity="0.8" />
</svg>