<svg width="44" height="44" viewBox="0 0 44 44" fill="none" xmlns="http://www.w3.org/2000/svg">
<path fill-rule="evenodd" clip-rule="evenodd" d="M22 5.5V5.5C31.1135 5.5 38.5 12.8865 38.5 22V22C38.5 31.1135 31.1135 38.5 22 38.5V38.5C12.8865 38.5 5.5 31.1135 5.5 22V22C5.5 12.8865 12.8865 5.5 22 5.5Z" stroke="#FC5A5A" stroke-width="2" stroke-linecap="round" stroke-linejoin="round"/>
<path d="M22.0002 22.9167V13.75" stroke="#FC5A5A" stroke-width="2" stroke-linecap="round" stroke-linejoin="round"/>
<path d="M21.9983 29.3333C21.7453 29.3333 21.54 29.5387 21.5418 29.7917C21.5418 30.0447 21.7472 30.25 22.0002 30.25C22.2532 30.25 22.4585 30.0447 22.4585 29.7917C22.4585 29.5387 22.2532 29.3333 21.9983 29.3333" stroke="#FC5A5A" stroke-width="2" stroke-linecap="round" stroke-linejoin="round"/>
</svg>
